<svg width="22" height="22" viewBox="0 0 20 20" fill="none" xmlns="http://www.w3.org/2000/svg">
<path d="M16.25 3.125H3.75C2.71447 3.125 1.875 3.96447 1.875 5V15C1.875 16.0355 2.71447 16.875 3.75 16.875H16.25C17.2855 16.875 18.125 16.0355 18.125 15V5C18.125 3.96447 17.2855 3.125 16.25 3.125Z" stroke="#545454" stroke-width="1.25" stroke-linejoin="round"/>
<path d="M13.125 8.125C13.8154 8.125 14.375 7.56536 14.375 6.875C14.375 6.18464 13.8154 5.625 13.125 5.625C12.4346 5.625 11.875 6.18464 11.875 6.875C11.875 7.56536 12.4346 8.125 13.125 8.125Z" stroke="#545454" stroke-width="1.25" stroke-miterlimit="10"/>
<path d="M11.875 13.1176L8.33359 9.58281C8.10824 9.35751 7.80535 9.22678 7.48684 9.21735C7.16832 9.20791 6.85822 9.32047 6.61992 9.53203L1.875 13.7508M8.75 16.8758L13.568 12.0578C13.7883 11.837 14.0832 11.7066 14.3948 11.6922C14.7064 11.6777 15.0121 11.7803 15.252 11.9797L18.125 14.3758" stroke="#545454" stroke-width="1.25" stroke-linecap="round" stroke-linejoin="round"/>
</svg>
