<svg width="16" height="14" viewBox="0 0 16 14" fill="none" xmlns="http://www.w3.org/2000/svg">
<path d="M14.875 0.28125H1.125C0.834919 0.28125 0.55672 0.396484 0.351602 0.601602C0.146484 0.80672 0.03125 1.08492 0.03125 1.375V12.625C0.03125 12.9151 0.146484 13.1933 0.351602 13.3984C0.55672 13.6035 0.834919 13.7188 1.125 13.7188H14.875C15.1651 13.7188 15.4433 13.6035 15.6484 13.3984C15.8535 13.1933 15.9688 12.9151 15.9688 12.625V1.375C15.9688 1.08492 15.8535 0.80672 15.6484 0.601602C15.4433 0.396484 15.1651 0.28125 14.875 0.28125ZM1.125 1.21875H14.875C14.9164 1.21875 14.9562 1.23521 14.9855 1.26451C15.0148 1.29382 15.0312 1.33356 15.0312 1.375V9.77891L12.7289 7.47656C12.6273 7.37499 12.5068 7.29441 12.3741 7.23944C12.2413 7.18447 12.0991 7.15617 11.9555 7.15617C11.8118 7.15617 11.6696 7.18447 11.5369 7.23944C11.4042 7.29441 11.2836 7.37499 11.182 7.47656L9.50859 9.15L5.96094 5.60156C5.85937 5.49999 5.73879 5.41941 5.60609 5.36444C5.47338 5.30947 5.33114 5.28117 5.1875 5.28117C5.04386 5.28117 4.90162 5.30947 4.76891 5.36444C4.63621 5.41941 4.51563 5.49999 4.41406 5.60156L0.96875 9.04687V1.375C0.96875 1.33356 0.985212 1.29382 1.01451 1.26451C1.04382 1.23521 1.08356 1.21875 1.125 1.21875ZM0.96875 12.625V10.3727L5.07656 6.26484C5.09109 6.2502 5.10837 6.23857 5.12741 6.23064C5.14645 6.22271 5.16687 6.21863 5.1875 6.21863C5.20813 6.21863 5.22855 6.22271 5.24759 6.23064C5.26663 6.23857 5.28391 6.2502 5.29844 6.26484L11.8148 12.7812H1.125C1.08356 12.7812 1.04382 12.7648 1.01451 12.7355C0.985212 12.7062 0.96875 12.6664 0.96875 12.625ZM14.875 12.7812H13.1406L10.1719 9.8125L11.8445 8.13906C11.859 8.12454 11.8763 8.11301 11.8952 8.10515C11.9142 8.09728 11.9345 8.09324 11.9551 8.09324C11.9756 8.09324 11.9959 8.09728 12.0149 8.10515C12.0339 8.11301 12.0511 8.12454 12.0656 8.13906L15.0344 11.1078V12.625C15.0344 12.6458 15.0302 12.6664 15.0222 12.6855C15.0141 12.7047 15.0024 12.7221 14.9875 12.7366C14.9727 12.7512 14.9551 12.7626 14.9358 12.7703C14.9164 12.7779 14.8958 12.7817 14.875 12.7812ZM9.40625 4.8125C9.40625 4.65798 9.45207 4.50694 9.53791 4.37846C9.62376 4.24998 9.74577 4.14985 9.88853 4.09072C10.0313 4.03159 10.1884 4.01612 10.3399 4.04626C10.4915 4.07641 10.6307 4.15081 10.7399 4.26007C10.8492 4.36933 10.9236 4.50854 10.9537 4.66009C10.9839 4.81163 10.9684 4.96872 10.9093 5.11147C10.8502 5.25423 10.75 5.37624 10.6215 5.46209C10.4931 5.54793 10.342 5.59375 10.1875 5.59375C9.9803 5.59375 9.78159 5.51144 9.63507 5.36493C9.48856 5.21841 9.40625 5.0197 9.40625 4.8125Z" fill="#72747C"/>
</svg>
