<svg width="25" height="25" viewBox="0 0 30 30" fill="none" xmlns="http://www.w3.org/2000/svg">
<path d="M24.375 4.6875H5.625C4.0717 4.6875 2.8125 5.9467 2.8125 7.5V22.5C2.8125 24.0533 4.0717 25.3125 5.625 25.3125H24.375C25.9283 25.3125 27.1875 24.0533 27.1875 22.5V7.5C27.1875 5.9467 25.9283 4.6875 24.375 4.6875Z" stroke="#545454" stroke-width="1.875" stroke-linejoin="round"/>
<path d="M19.6875 12.1875C20.723 12.1875 21.5625 11.348 21.5625 10.3125C21.5625 9.27697 20.723 8.4375 19.6875 8.4375C18.652 8.4375 17.8125 9.27697 17.8125 10.3125C17.8125 11.348 18.652 12.1875 19.6875 12.1875Z" stroke="#545454" stroke-width="1.875" stroke-miterlimit="10"/>
<path d="M17.8125 19.6754L12.5004 14.3732C12.1624 14.0353 11.708 13.8392 11.2303 13.825C10.7525 13.8109 10.2873 13.9797 9.92988 14.2971L2.8125 20.6252M13.125 25.3127L20.352 18.0857C20.6825 17.7546 21.1248 17.5589 21.5922 17.5373C22.0596 17.5156 22.5182 17.6694 22.8779 17.9686L27.1875 21.5627" stroke="#545454" stroke-width="1.875" stroke-linecap="round" stroke-linejoin="round"/>
</svg>
