<svg width="30" height="30" viewBox="0 0 30 30" fill="none" xmlns="http://www.w3.org/2000/svg">
<path d="M26.25 14.9993C26.2537 17.2328 25.5894 19.4164 24.3425 21.2693C23.3142 22.803 21.9238 24.0597 20.2944 24.9283C18.6649 25.7969 16.8465 26.2506 15 26.2493C13.1535 26.2506 11.3351 25.7969 9.70563 24.9283C8.07616 24.0597 6.68581 22.803 5.6575 21.2693C4.67841 19.8099 4.05488 18.1413 3.83688 16.3974C3.61889 14.6535 3.81249 12.8828 4.40218 11.2272C4.99187 9.57161 5.96124 8.07721 7.23258 6.86379C8.50392 5.65037 10.0419 4.75168 11.7231 4.23977C13.4044 3.72786 15.1822 3.61696 16.9141 3.91598C18.6459 4.21499 20.2836 4.91559 21.6959 5.96162C23.1082 7.00765 24.2557 8.37 25.0466 9.93947C25.8374 11.5089 26.2496 13.2419 26.25 14.9993Z" stroke="#545454" stroke-width="1.25"/>
<path d="M16.875 11.25C16.875 11.7473 16.6774 12.2242 16.3258 12.5758C15.9742 12.9275 15.4973 13.125 15 13.125V14.375C15.4104 14.375 15.8167 14.2942 16.1959 14.1371C16.575 13.9801 16.9195 13.7499 17.2097 13.4597C17.4999 13.1695 17.7301 12.825 17.8871 12.4459C18.0441 12.0667 18.125 11.6604 18.125 11.25H16.875ZM15 13.125C14.5027 13.125 14.0258 12.9275 13.6742 12.5758C13.3225 12.2242 13.125 11.7473 13.125 11.25H11.875C11.875 11.6604 11.9558 12.0667 12.1129 12.4459C12.2699 12.825 12.5001 13.1695 12.7903 13.4597C13.3763 14.0458 14.1712 14.375 15 14.375V13.125ZM13.125 11.25C13.125 10.7527 13.3225 10.2758 13.6742 9.92417C14.0258 9.57254 14.5027 9.375 15 9.375V8.125C14.1712 8.125 13.3763 8.45424 12.7903 9.04029C12.2042 9.62634 11.875 10.4212 11.875 11.25H13.125ZM15 9.375C15.4973 9.375 15.9742 9.57254 16.3258 9.92417C16.6774 10.2758 16.875 10.7527 16.875 11.25H18.125C18.125 10.4212 17.7957 9.62634 17.2097 9.04029C16.6236 8.45424 15.8288 8.125 15 8.125V9.375ZM6.45748 22.32L5.85748 22.1425L5.76123 22.4688L5.98248 22.7275L6.45748 22.32ZM23.5425 22.32L24.0175 22.7275L24.2387 22.4688L24.1412 22.1425L23.5425 22.32ZM11.25 19.375H18.75V18.125H11.25V19.375ZM11.25 18.125C10.0386 18.1252 8.85972 18.5163 7.88842 19.2401C6.91711 19.9639 6.20404 20.9818 5.85748 22.1425L7.05623 22.4988C7.32605 21.5961 7.87988 20.8046 8.63541 20.2419C9.39095 19.6791 10.3079 19.3751 11.25 19.375V18.125ZM15 25.625C13.4666 25.6266 11.9511 25.2956 10.558 24.6546C9.16498 24.0137 7.92759 23.0781 6.93123 21.9125L5.98248 22.7275C7.09629 24.0297 8.47928 25.0748 10.0361 25.7909C11.5929 26.5069 13.2864 26.8768 15 26.875V25.625ZM18.75 19.375C19.6922 19.3752 20.6093 19.6793 21.3648 20.2424C22.1204 20.8054 22.6741 21.5971 22.9437 22.5L24.1412 22.1425C23.7947 20.9818 23.0828 19.9639 22.1115 19.2401C21.1402 18.5163 19.9613 18.1252 18.75 18.125V19.375ZM23.0687 21.9125C22.0724 23.0781 20.835 24.0137 19.4419 24.6546C18.0489 25.2956 16.5334 25.6266 15 25.625V26.875C16.7135 26.8768 18.4071 26.5069 19.9639 25.7909C21.5207 25.0748 22.9037 24.0297 24.0175 22.7275L23.0675 21.9138L23.0687 21.9125Z" fill="#545454"/>
</svg>
