<svg width="20" height="20" viewBox="0 0 25 25" fill="none" xmlns="http://www.w3.org/2000/svg">
<g clip-path="url(#clip0_408_92)">
<path d="M6.37516 15.6074L1.4823 10.7146C1.25208 10.4846 1.0826 10.201 0.989091 9.88931C0.895584 9.57761 0.880978 9.24758 0.946587 8.92884C1.01015 8.57839 1.16615 8.25127 1.39846 7.98128C1.63077 7.7113 1.93096 7.50825 2.26802 7.39313L21.4287 1.00027C21.7877 0.866852 22.1775 0.839324 22.5517 0.92096C22.9259 1.0026 23.2688 1.18996 23.5396 1.46079C23.8105 1.73161 23.9978 2.07451 24.0795 2.44871C24.1611 2.82291 24.1336 3.21269 24.0002 3.5717L17.6073 22.7324C17.4998 23.0582 17.3103 23.3509 17.057 23.5824C16.8037 23.8138 16.4951 23.9762 16.1609 24.0538C15.8287 24.1355 15.4811 24.129 15.1522 24.0351C14.8233 23.9411 14.5247 23.7629 14.2859 23.5181L10.393 19.6431L6.21444 21.8038L6.37516 15.6074ZM6.37516 15.6074L23.4287 1.39313" stroke="#72747C" stroke-width="1.78571" stroke-linecap="round" stroke-linejoin="round"/>
</g>
<defs>
<clipPath id="clip0_408_92">
<rect width="25" height="25" fill="white"/>
</clipPath>
</defs>
</svg>
