<svg width="23" height="23" viewBox="0 0 30 30" fill="none" xmlns="http://www.w3.org/2000/svg">
<g clip-path="url(#clip0_407_88)">
<path fill-rule="evenodd" clip-rule="evenodd" d="M22.4887 7.51274L6.74868 13.204L11.9924 16.239L16.6162 11.614C16.8507 11.3796 17.1688 11.248 17.5004 11.2481C17.832 11.2482 18.1499 11.3801 18.3843 11.6146C18.6187 11.8492 18.7503 12.1672 18.7502 12.4988C18.7501 12.8304 18.6182 13.1484 18.3837 13.3827L13.7587 18.0077L16.7962 23.2502L22.4887 7.51274ZM22.8924 4.70773C24.3862 4.16648 25.8337 5.61398 25.2924 7.10773L18.6899 25.364C18.1474 26.8615 16.1024 27.044 15.3037 25.6652L11.2824 18.7177L4.33493 14.6965C2.95618 13.8977 3.13743 11.8527 4.63618 11.3102L22.8924 4.70773Z" fill="#72747C"/>
</g>
<defs>
<clipPath id="clip0_407_88">
<rect width="30" height="30" fill="white"/>
</clipPath>
</defs>
</svg>
