<svg width="19" height="19" viewBox="0 0 19 19" fill="none" xmlns="http://www.w3.org/2000/svg">
<path d="M18.8267 0.174346C18.9089 0.256678 18.9651 0.361347 18.9883 0.475351C19.0116 0.589354 19.0008 0.707669 18.9573 0.815596L12.0473 18.0902C11.9864 18.2423 11.8847 18.3747 11.7534 18.4727C11.6221 18.5708 11.4663 18.6307 11.3032 18.646C11.14 18.6612 10.9758 18.6311 10.8287 18.559C10.6815 18.4869 10.5571 18.3756 10.4691 18.2374L6.69521 12.3058L0.763649 8.53197C0.625089 8.44408 0.513504 8.31961 0.441207 8.17231C0.36891 8.02501 0.338712 7.8606 0.353944 7.69722C0.369176 7.53384 0.429247 7.37785 0.527528 7.24645C0.625809 7.11505 0.758479 7.01336 0.910899 6.9526L18.1855 0.0449088C18.2934 0.00146086 18.4117 -0.00932131 18.5257 0.0139017C18.6397 0.0371246 18.7444 0.0933293 18.8267 0.175534V0.174346ZM7.88034 11.9591L11.159 17.1105L16.7795 3.05997L7.88034 11.9591ZM15.9399 2.22041L1.8894 7.84085L7.04196 11.1183L15.9399 2.22041Z" fill="#72747C"/>
</svg>
